<?xml version="1.0" standalone="no"?><!DOCTYPE svg PUBLIC "-//W3C//DTD SVG 1.1//EN" "http://www.w3.org/Graphics/SVG/1.1/DTD/svg11.dtd"><svg t="1612429713448" class="icon" viewBox="0 0 1024 1024" version="1.1" xmlns="http://www.w3.org/2000/svg" p-id="2144" xmlns:xlink="http://www.w3.org/1999/xlink" width="200" height="200"><defs><style type="text/css"></style></defs><path d="M897.101 150.187a62.805 62.805 0 0 1 49.04 23.568c21.67 27.084 17.282 66.607-9.802 88.277L653.525 488.314v417.673a62.805 62.805 0 0 1-6.07 26.937l-0.346 0.719c-15.274 31.143-52.902 44.007-84.045 28.733L409.38 887a68.267 68.267 0 0 1-38.206-61.292V488.403L86.365 262.17a62.818 62.818 0 0 1-23.742-48.567v-0.611c0-34.686 28.12-62.805 62.806-62.805z m-54.486 81.919H180.223L423.16 425.077a79.19 79.19 0 0 1 29.931 61.284l0.003 0.724v330.114l118.512 58.124V487.002a79.19 79.19 0 0 1 29.155-61.38l0.561-0.453 241.294-193.063z m44.852 553.28c22.621 0 40.96 18.34 40.96 40.96 0 22.622-18.339 40.96-40.96 40.96H740.01c-22.622 0-40.96-18.338-40.96-40.96 0-22.62 18.338-40.96 40.96-40.96h147.456z m0-139.263c22.621 0 40.96 18.338 40.96 40.96 0 22.621-18.339 40.96-40.96 40.96H740.01c-22.622 0-40.96-18.339-40.96-40.96 0-22.622 18.338-40.96 40.96-40.96h147.456z m0-136.534c22.621 0 40.96 18.339 40.96 40.96 0 22.622-18.339 40.96-40.96 40.96H740.01c-22.622 0-40.96-18.338-40.96-40.96 0-22.621 18.338-40.96 40.96-40.96h147.456z" p-id="2145" fill="#bfbfbf"></path></svg>